<?xml version="1.0" standalone="no"?>
<!DOCTYPE svg PUBLIC "-//W3C//DTD SVG 20010904//EN"
 "http://www.w3.org/TR/2001/REC-SVG-20010904/DTD/svg10.dtd">
<svg version="1.0" xmlns="http://www.w3.org/2000/svg"
 width="300.000000pt" height="300.000000pt" viewBox="0 0 300.000000 300.000000"
 preserveAspectRatio="xMidYMid meet">
<metadata>
Created by potrace 1.14, written by Peter Selinger 2001-2017
</metadata>
<g transform="translate(0.000000,300.000000) scale(0.100000,-0.100000)"
fill="#000000" stroke="none">
<path d="M1657 2554 c-1 -1 -34 -4 -73 -7 -57 -5 -242 -38 -289 -51 -5 -2 -23
-6 -40 -10 -69 -18 -257 -92 -345 -137 -380 -194 -640 -482 -735 -815 -38
-131 -40 -296 -7 -417 81 -286 317 -503 652 -600 81 -24 106 -29 193 -42 20
-3 54 -7 75 -11 48 -7 254 -7 310 1 23 3 59 7 80 10 267 33 597 163 822 322
126 90 290 255 364 367 209 317 236 647 74 920 -45 75 -175 214 -248 263 -121
82 -303 154 -450 179 -14 2 -34 6 -45 9 -52 11 -328 27 -338 19z m278 -45
c371 -47 648 -250 735 -537 26 -87 25 -248 -1 -343 -59 -212 -196 -401 -403
-555 -173 -129 -358 -217 -568 -268 -143 -35 -197 -41 -368 -41 -149 1 -232 9
-278 26 -15 6 -28 10 -30 9 -8 -5 -78 17 -151 47 -247 101 -408 278 -454 500
-14 64 -15 206 -3 263 64 289 295 559 626 729 128 66 220 101 343 131 107 26
122 29 187 36 30 4 56 8 58 9 7 6 245 2 307 -6z"/>
<path d="M1649 2486 c-2 -2 -26 -7 -54 -10 -66 -7 -193 -40 -280 -73 -454
-170 -737 -567 -645 -902 42 -149 136 -263 290 -349 56 -31 181 -76 241 -86
19 -3 48 -9 64 -12 39 -8 281 -8 320 0 17 3 50 9 75 12 67 9 266 77 350 119
334 167 540 442 540 720 0 144 -49 256 -161 367 -104 104 -219 160 -414 204
-34 7 -319 16 -326 10z m287 -41 c163 -22 325 -113 400 -226 58 -86 70 -129
67 -239 -7 -351 -458 -670 -924 -653 -388 13 -637 267 -558 568 26 96 108 228
183 292 18 15 46 39 62 53 53 44 158 103 269 150 123 53 344 77 501 55z"/>
<path d="M1670 2410 c-106 -22 -173 -48 -258 -99 -204 -121 -303 -321 -241
-486 39 -103 130 -176 276 -218 66 -20 242 -20 323 -1 292 68 500 266 502 480
2 236 -282 389 -602 324z"/>
</g>
</svg>
